<?xml version="1.0" encoding="iso-8859-1"?>
<!-- Generator: Adobe Illustrator 25.0.0, SVG Export Plug-In . SVG Version: 6.00 Build 0)  -->
<svg version="1.1" baseProfile="basic" id="Layer_1"
	 xmlns="http://www.w3.org/2000/svg" xmlns:xlink="http://www.w3.org/1999/xlink" x="0px" y="0px" viewBox="0 0 72 72"
	 xml:space="preserve">
<path d="M46.655,35.12c0,8.197-7.682,8.111-7.682,8.111s0.98,1.097,0.98,2.645c0,0.902,0.027,3.358,0,4.41
	c-0.024,0.957,1.119,1.492,1.119,1.492s-2.665,1.365-5.257,1.365s-5.257-1.365-5.257-1.365s1.143-0.536,1.119-1.492
	c-0.027-1.053,0-3.509,0-4.41c0-1.548,0.98-2.645,0.98-2.645s-7.682,0.086-7.682-8.111c0-3.163,1.653-4.809,1.653-4.809
	s-0.868-3.377,0.301-4.809c1.31-0.141,3.657,1.252,4.658,1.903c0,0,1.588-0.651,4.229-0.651c2.641,0,4.229,0.651,4.229,0.651
	c1.002-0.651,3.348-2.045,4.658-1.903c1.169,1.432,0.301,4.809,0.301,4.809S46.655,31.958,46.655,35.12z"/>
<path d="M32.485,47.913c0,0-2.023,0.306-2.746,0.306c-3.872,0-3.852-2.799-4.939-4.044c-0.515-0.59-1.296-0.813-1.296-1.131
	s0.272-0.597,0.829-0.597c0.846,0,1.753,0.599,2.196,1.313c0.449,0.724,1.674,2.289,3.284,2.289c1.035,0,2.488-0.613,2.488-0.613
	L32.485,47.913z"/>
<path d="M36,12c13.255,0,24,10.745,24,24S49.255,60,36,60S12,49.255,12,36S22.745,12,36,12z M36,52c8.837,0,16-7.163,16-16
	s-7.163-16-16-16s-16,7.163-16,16S27.163,52,36,52z"/>
</svg>